<svg xmlns="http://www.w3.org/2000/svg" xmlns:xlink="http://www.w3.org/1999/xlink" width="500" zoomAndPan="magnify" viewBox="0 0 375 374.999991" height="500" preserveAspectRatio="xMidYMid meet" version="1.0"><defs><g/><clipPath id="2b271f59d0"><path d="M 116.53125 132.605469 L 266.53125 132.605469 L 266.53125 227.855469 L 116.53125 227.855469 Z M 116.53125 132.605469 " clip-rule="nonzero"/></clipPath><clipPath id="787fd19fd4"><path d="M 191.53125 152.792969 C 177.132812 152.792969 165.421875 164.648438 165.421875 179.21875 C 165.421875 193.789062 177.136719 205.644531 191.53125 205.644531 C 205.929688 205.644531 217.640625 193.789062 217.640625 179.21875 C 217.640625 164.648438 205.929688 152.792969 191.53125 152.792969 Z M 191.53125 203.265625 C 178.449219 203.265625 167.800781 192.476562 167.800781 179.21875 C 167.800781 165.960938 178.449219 155.175781 191.53125 155.175781 C 204.617188 155.175781 215.261719 165.960938 215.261719 179.21875 C 215.261719 192.476562 204.617188 203.265625 191.53125 203.265625 Z M 259.820312 132.605469 L 249.839844 132.605469 C 246.722656 132.605469 244.109375 134.757812 243.382812 137.652344 L 139.683594 137.652344 C 138.953125 134.757812 136.339844 132.605469 133.222656 132.605469 L 123.246094 132.605469 C 119.570312 132.605469 116.578125 135.597656 116.578125 139.277344 L 116.578125 139.417969 C 116.578125 143.097656 119.570312 146.089844 123.246094 146.089844 L 133.226562 146.089844 C 136.691406 146.089844 139.546875 143.425781 139.859375 140.03125 L 243.207031 140.03125 C 243.515625 143.425781 246.371094 146.089844 249.839844 146.089844 L 259.820312 146.089844 C 263.496094 146.089844 266.488281 143.097656 266.488281 139.417969 L 266.488281 139.277344 C 266.484375 135.597656 263.496094 132.605469 259.820312 132.605469 Z M 137.511719 139.417969 C 137.511719 141.785156 135.589844 143.707031 133.222656 143.707031 L 123.246094 143.707031 C 120.878906 143.707031 118.957031 141.785156 118.957031 139.417969 L 118.957031 139.277344 C 118.957031 136.910156 120.878906 134.984375 123.246094 134.984375 L 133.226562 134.984375 C 135.589844 134.984375 137.511719 136.910156 137.511719 139.277344 Z M 264.105469 139.417969 C 264.105469 141.785156 262.183594 143.707031 259.820312 143.707031 L 249.839844 143.707031 C 247.476562 143.707031 245.550781 141.785156 245.550781 139.417969 L 245.550781 139.277344 C 245.550781 136.910156 247.472656 134.984375 249.839844 134.984375 L 259.820312 134.984375 C 262.183594 134.984375 264.105469 136.910156 264.105469 139.277344 Z M 259.820312 159.859375 L 249.839844 159.859375 C 246.722656 159.859375 244.109375 162.011719 243.378906 164.90625 L 222.535156 164.90625 C 217.148438 153.007812 205.285156 144.71875 191.53125 144.71875 C 177.78125 144.71875 165.914062 153.007812 160.53125 164.90625 L 139.683594 164.90625 C 138.957031 162.011719 136.339844 159.859375 133.222656 159.859375 L 123.246094 159.859375 C 119.570312 159.859375 116.578125 162.851562 116.578125 166.53125 L 116.578125 166.671875 C 116.578125 170.351562 119.570312 173.34375 123.246094 173.34375 L 133.226562 173.34375 C 136.691406 173.34375 139.546875 170.679688 139.859375 167.289062 L 159.550781 167.289062 C 158.191406 171.007812 157.449219 175.027344 157.449219 179.21875 C 157.449219 183.792969 158.339844 188.160156 159.945312 192.160156 L 139.683594 192.160156 C 138.953125 189.265625 136.339844 187.113281 133.222656 187.113281 L 123.246094 187.113281 C 119.570312 187.113281 116.578125 190.105469 116.578125 193.785156 L 116.578125 193.929688 C 116.578125 197.605469 119.570312 200.597656 123.246094 200.597656 L 133.226562 200.597656 C 136.695312 200.597656 139.550781 197.933594 139.859375 194.542969 L 161.003906 194.542969 C 166.589844 205.898438 178.171875 213.722656 191.53125 213.722656 C 204.890625 213.722656 216.472656 205.898438 222.058594 194.542969 L 243.203125 194.542969 C 243.515625 197.933594 246.371094 200.597656 249.839844 200.597656 L 259.820312 200.597656 C 263.496094 200.597656 266.484375 197.605469 266.484375 193.929688 L 266.484375 193.785156 C 266.484375 190.105469 263.496094 187.113281 259.820312 187.113281 L 249.839844 187.113281 C 246.722656 187.113281 244.109375 189.265625 243.382812 192.160156 L 223.121094 192.160156 C 224.726562 188.160156 225.617188 183.792969 225.617188 179.21875 C 225.617188 175.027344 224.871094 171.007812 223.515625 167.289062 L 243.207031 167.289062 C 243.515625 170.679688 246.371094 173.34375 249.839844 173.34375 L 259.820312 173.34375 C 263.496094 173.34375 266.488281 170.351562 266.488281 166.671875 L 266.488281 166.53125 C 266.484375 162.851562 263.496094 159.859375 259.820312 159.859375 Z M 137.511719 166.671875 C 137.511719 169.039062 135.589844 170.964844 133.222656 170.964844 L 123.246094 170.964844 C 120.878906 170.964844 118.957031 169.039062 118.957031 166.671875 L 118.957031 166.53125 C 118.957031 164.164062 120.878906 162.238281 123.246094 162.238281 L 133.226562 162.238281 C 135.589844 162.238281 137.511719 164.164062 137.511719 166.53125 Z M 137.511719 193.929688 C 137.511719 196.292969 135.589844 198.21875 133.222656 198.21875 L 123.246094 198.21875 C 120.878906 198.214844 118.957031 196.292969 118.957031 193.929688 L 118.957031 193.785156 C 118.957031 191.417969 120.878906 189.492188 123.246094 189.492188 L 133.226562 189.492188 C 135.589844 189.492188 137.511719 191.417969 137.511719 193.785156 Z M 249.839844 189.492188 L 259.820312 189.492188 C 262.183594 189.492188 264.109375 191.417969 264.109375 193.785156 L 264.109375 193.929688 C 264.109375 196.292969 262.183594 198.21875 259.820312 198.21875 L 249.839844 198.21875 C 247.476562 198.21875 245.550781 196.292969 245.550781 193.929688 L 245.550781 193.785156 C 245.550781 191.417969 247.476562 189.492188 249.839844 189.492188 Z M 191.53125 211.339844 C 174.050781 211.339844 159.828125 196.929688 159.828125 179.21875 C 159.828125 161.507812 174.050781 147.097656 191.53125 147.097656 C 209.015625 147.097656 223.238281 161.507812 223.238281 179.21875 C 223.238281 196.933594 209.015625 211.339844 191.53125 211.339844 Z M 264.105469 166.671875 C 264.105469 169.039062 262.183594 170.964844 259.820312 170.964844 L 249.839844 170.964844 C 247.476562 170.964844 245.550781 169.039062 245.550781 166.671875 L 245.550781 166.53125 C 245.550781 164.164062 247.472656 162.238281 249.839844 162.238281 L 259.820312 162.238281 C 262.183594 162.238281 264.105469 164.164062 264.105469 166.53125 Z M 259.820312 214.367188 L 249.839844 214.367188 C 246.722656 214.367188 244.109375 216.519531 243.382812 219.414062 L 139.683594 219.414062 C 138.953125 216.519531 136.339844 214.367188 133.222656 214.367188 L 123.246094 214.367188 C 119.570312 214.367188 116.578125 217.363281 116.578125 221.039062 L 116.578125 221.179688 C 116.578125 224.859375 119.570312 227.855469 123.246094 227.855469 L 133.226562 227.855469 C 136.691406 227.855469 139.546875 225.1875 139.859375 221.796875 L 243.207031 221.796875 C 243.515625 225.1875 246.371094 227.855469 249.839844 227.855469 L 259.820312 227.855469 C 263.496094 227.855469 266.488281 224.859375 266.488281 221.179688 L 266.488281 221.039062 C 266.484375 217.363281 263.496094 214.367188 259.820312 214.367188 Z M 137.511719 221.179688 C 137.511719 223.546875 135.589844 225.472656 133.222656 225.472656 L 123.246094 225.472656 C 120.878906 225.472656 118.957031 223.546875 118.957031 221.179688 L 118.957031 221.039062 C 118.957031 218.675781 120.878906 216.75 123.246094 216.75 L 133.226562 216.75 C 135.589844 216.75 137.511719 218.671875 137.511719 221.039062 Z M 264.105469 221.179688 C 264.105469 223.546875 262.183594 225.472656 259.820312 225.472656 L 249.839844 225.472656 C 247.476562 225.472656 245.550781 223.546875 245.550781 221.179688 L 245.550781 221.039062 C 245.550781 218.675781 247.472656 216.75 249.839844 216.75 L 259.820312 216.75 C 262.183594 216.75 264.105469 218.671875 264.105469 221.039062 Z M 204.363281 175.601562 L 195.714844 175.601562 L 195.714844 165.085938 C 195.714844 164.574219 195.386719 164.121094 194.902344 163.957031 C 194.417969 163.796875 193.882812 163.960938 193.574219 164.371094 L 181.609375 180.214844 C 181.339844 180.574219 181.292969 181.058594 181.496094 181.460938 C 181.695312 181.867188 182.109375 182.121094 182.558594 182.121094 L 190.117188 182.121094 L 188.203125 193.148438 C 188.113281 193.667969 188.375 194.1875 188.855469 194.421875 C 189.019531 194.5 189.199219 194.542969 189.375 194.542969 C 189.703125 194.542969 190.027344 194.40625 190.257812 194.152344 L 205.246094 177.59375 C 205.5625 177.242188 205.640625 176.742188 205.453125 176.3125 C 205.261719 175.882812 204.835938 175.601562 204.363281 175.601562 Z M 191.25 189.507812 L 192.707031 181.136719 C 192.765625 180.789062 192.667969 180.433594 192.445312 180.167969 C 192.21875 179.898438 191.882812 179.742188 191.53125 179.742188 L 184.949219 179.742188 L 193.332031 168.640625 L 193.332031 176.796875 C 193.332031 177.453125 193.863281 177.984375 194.523438 177.984375 L 201.683594 177.984375 Z M 191.25 189.507812 " clip-rule="nonzero"/></clipPath><linearGradient x1="63" gradientTransform="matrix(1.189746, 0, 0, 1.190625, 116.578127, 132.603697)" y1="0.0000000628625" x2="63" gradientUnits="userSpaceOnUse" y2="80" id="4e1e32bbbe"><stop stop-opacity="1" stop-color="rgb(93.699646%, 79.598999%, 34.498596%)" offset="0"/><stop stop-opacity="1" stop-color="rgb(93.64624%, 79.420471%, 34.667969%)" offset="0.0078125"/><stop stop-opacity="1" stop-color="rgb(93.537903%, 79.064941%, 35.00824%)" offset="0.015625"/><stop stop-opacity="1" stop-color="rgb(93.431091%, 78.709412%, 35.348511%)" offset="0.0234375"/><stop stop-opacity="1" stop-color="rgb(93.32428%, 78.353882%, 35.688782%)" offset="0.03125"/><stop stop-opacity="1" stop-color="rgb(93.217468%, 77.998352%, 36.027527%)" offset="0.0390625"/><stop stop-opacity="1" stop-color="rgb(93.110657%, 77.642822%, 36.367798%)" offset="0.046875"/><stop stop-opacity="1" stop-color="rgb(93.003845%, 77.287292%, 36.708069%)" offset="0.0546875"/><stop stop-opacity="1" stop-color="rgb(92.897034%, 76.931763%, 37.046814%)" offset="0.0625"/><stop stop-opacity="1" stop-color="rgb(92.788696%, 76.577759%, 37.387085%)" offset="0.0703125"/><stop stop-opacity="1" stop-color="rgb(92.681885%, 76.222229%, 37.727356%)" offset="0.078125"/><stop stop-opacity="1" stop-color="rgb(92.575073%, 75.866699%, 38.067627%)" offset="0.0859375"/><stop stop-opacity="1" stop-color="rgb(92.468262%, 75.511169%, 38.406372%)" offset="0.09375"/><stop stop-opacity="1" stop-color="rgb(92.36145%, 75.15564%, 38.746643%)" offset="0.101562"/><stop stop-opacity="1" stop-color="rgb(92.254639%, 74.80011%, 39.086914%)" offset="0.109375"/><stop stop-opacity="1" stop-color="rgb(92.147827%, 74.44458%, 39.427185%)" offset="0.117188"/><stop stop-opacity="1" stop-color="rgb(92.03949%, 74.08905%, 39.76593%)" offset="0.125"/><stop stop-opacity="1" stop-color="rgb(91.932678%, 73.733521%, 40.106201%)" offset="0.132813"/><stop stop-opacity="1" stop-color="rgb(91.825867%, 73.377991%, 40.446472%)" offset="0.140625"/><stop stop-opacity="1" stop-color="rgb(91.719055%, 73.022461%, 40.785217%)" offset="0.148438"/><stop stop-opacity="1" stop-color="rgb(91.612244%, 72.666931%, 41.125488%)" offset="0.15625"/><stop stop-opacity="1" stop-color="rgb(91.505432%, 72.311401%, 41.465759%)" offset="0.164062"/><stop stop-opacity="1" stop-color="rgb(91.398621%, 71.955872%, 41.80603%)" offset="0.171875"/><stop stop-opacity="1" stop-color="rgb(91.290283%, 71.600342%, 42.144775%)" offset="0.179688"/><stop stop-opacity="1" stop-color="rgb(91.183472%, 71.244812%, 42.485046%)" offset="0.1875"/><stop stop-opacity="1" stop-color="rgb(91.07666%, 70.889282%, 42.825317%)" offset="0.195312"/><stop stop-opacity="1" stop-color="rgb(90.969849%, 70.533752%, 43.164062%)" offset="0.203125"/><stop stop-opacity="1" stop-color="rgb(90.863037%, 70.178223%, 43.504333%)" offset="0.210937"/><stop stop-opacity="1" stop-color="rgb(90.756226%, 69.822693%, 43.844604%)" offset="0.21875"/><stop stop-opacity="1" stop-color="rgb(90.649414%, 69.467163%, 44.184875%)" offset="0.226562"/><stop stop-opacity="1" stop-color="rgb(90.541077%, 69.111633%, 44.523621%)" offset="0.234375"/><stop stop-opacity="1" stop-color="rgb(90.434265%, 68.756104%, 44.863892%)" offset="0.242187"/><stop stop-opacity="1" stop-color="rgb(90.327454%, 68.400574%, 45.204163%)" offset="0.25"/><stop stop-opacity="1" stop-color="rgb(90.220642%, 68.045044%, 45.542908%)" offset="0.257812"/><stop stop-opacity="1" stop-color="rgb(90.113831%, 67.69104%, 45.883179%)" offset="0.265625"/><stop stop-opacity="1" stop-color="rgb(90.007019%, 67.33551%, 46.22345%)" offset="0.273438"/><stop stop-opacity="1" stop-color="rgb(89.900208%, 66.97998%, 46.563721%)" offset="0.28125"/><stop stop-opacity="1" stop-color="rgb(89.79187%, 66.624451%, 46.902466%)" offset="0.289062"/><stop stop-opacity="1" stop-color="rgb(89.685059%, 66.268921%, 47.242737%)" offset="0.296875"/><stop stop-opacity="1" stop-color="rgb(89.578247%, 65.913391%, 47.583008%)" offset="0.304687"/><stop stop-opacity="1" stop-color="rgb(89.471436%, 65.557861%, 47.923279%)" offset="0.3125"/><stop stop-opacity="1" stop-color="rgb(89.364624%, 65.202332%, 48.262024%)" offset="0.320312"/><stop stop-opacity="1" stop-color="rgb(89.257812%, 64.846802%, 48.602295%)" offset="0.328125"/><stop stop-opacity="1" stop-color="rgb(89.151001%, 64.491272%, 48.942566%)" offset="0.335937"/><stop stop-opacity="1" stop-color="rgb(89.042664%, 64.135742%, 49.281311%)" offset="0.34375"/><stop stop-opacity="1" stop-color="rgb(88.935852%, 63.780212%, 49.621582%)" offset="0.351562"/><stop stop-opacity="1" stop-color="rgb(88.829041%, 63.424683%, 49.961853%)" offset="0.359375"/><stop stop-opacity="1" stop-color="rgb(88.722229%, 63.069153%, 50.302124%)" offset="0.367187"/><stop stop-opacity="1" stop-color="rgb(88.615417%, 62.713623%, 50.640869%)" offset="0.375"/><stop stop-opacity="1" stop-color="rgb(88.508606%, 62.358093%, 50.98114%)" offset="0.382812"/><stop stop-opacity="1" stop-color="rgb(88.401794%, 62.002563%, 51.321411%)" offset="0.390625"/><stop stop-opacity="1" stop-color="rgb(88.293457%, 61.647034%, 51.660156%)" offset="0.398437"/><stop stop-opacity="1" stop-color="rgb(88.186646%, 61.291504%, 52.000427%)" offset="0.40625"/><stop stop-opacity="1" stop-color="rgb(88.079834%, 60.935974%, 52.340698%)" offset="0.414062"/><stop stop-opacity="1" stop-color="rgb(87.973022%, 60.580444%, 52.680969%)" offset="0.421875"/><stop stop-opacity="1" stop-color="rgb(87.866211%, 60.224915%, 53.019714%)" offset="0.429687"/><stop stop-opacity="1" stop-color="rgb(87.759399%, 59.869385%, 53.359985%)" offset="0.4375"/><stop stop-opacity="1" stop-color="rgb(87.652588%, 59.513855%, 53.700256%)" offset="0.445312"/><stop stop-opacity="1" stop-color="rgb(87.54425%, 59.158325%, 54.039001%)" offset="0.453125"/><stop stop-opacity="1" stop-color="rgb(87.437439%, 58.804321%, 54.379272%)" offset="0.460937"/><stop stop-opacity="1" stop-color="rgb(87.330627%, 58.448792%, 54.719543%)" offset="0.46875"/><stop stop-opacity="1" stop-color="rgb(87.223816%, 58.093262%, 55.059814%)" offset="0.476562"/><stop stop-opacity="1" stop-color="rgb(87.117004%, 57.737732%, 55.39856%)" offset="0.484375"/><stop stop-opacity="1" stop-color="rgb(87.010193%, 57.382202%, 55.738831%)" offset="0.492187"/><stop stop-opacity="1" stop-color="rgb(86.903381%, 57.026672%, 56.079102%)" offset="0.5"/><stop stop-opacity="1" stop-color="rgb(86.795044%, 56.671143%, 56.419373%)" offset="0.507812"/><stop stop-opacity="1" stop-color="rgb(86.688232%, 56.315613%, 56.758118%)" offset="0.515625"/><stop stop-opacity="1" stop-color="rgb(86.581421%, 55.960083%, 57.098389%)" offset="0.523437"/><stop stop-opacity="1" stop-color="rgb(86.474609%, 55.604553%, 57.43866%)" offset="0.53125"/><stop stop-opacity="1" stop-color="rgb(86.367798%, 55.249023%, 57.777405%)" offset="0.539062"/><stop stop-opacity="1" stop-color="rgb(86.260986%, 54.893494%, 58.117676%)" offset="0.546875"/><stop stop-opacity="1" stop-color="rgb(86.154175%, 54.537964%, 58.457947%)" offset="0.554687"/><stop stop-opacity="1" stop-color="rgb(86.045837%, 54.182434%, 58.798218%)" offset="0.5625"/><stop stop-opacity="1" stop-color="rgb(85.939026%, 53.826904%, 59.136963%)" offset="0.570312"/><stop stop-opacity="1" stop-color="rgb(85.832214%, 53.471375%, 59.477234%)" offset="0.578125"/><stop stop-opacity="1" stop-color="rgb(85.725403%, 53.115845%, 59.817505%)" offset="0.585937"/><stop stop-opacity="1" stop-color="rgb(85.618591%, 52.760315%, 60.15625%)" offset="0.59375"/><stop stop-opacity="1" stop-color="rgb(85.51178%, 52.404785%, 60.496521%)" offset="0.601562"/><stop stop-opacity="1" stop-color="rgb(85.403442%, 52.049255%, 60.836792%)" offset="0.609375"/><stop stop-opacity="1" stop-color="rgb(85.296631%, 51.693726%, 61.177063%)" offset="0.617187"/><stop stop-opacity="1" stop-color="rgb(85.189819%, 51.338196%, 61.515808%)" offset="0.625"/><stop stop-opacity="1" stop-color="rgb(85.083008%, 50.982666%, 61.856079%)" offset="0.632812"/><stop stop-opacity="1" stop-color="rgb(84.976196%, 50.627136%, 62.19635%)" offset="0.640625"/><stop stop-opacity="1" stop-color="rgb(84.869385%, 50.271606%, 62.535095%)" offset="0.648437"/><stop stop-opacity="1" stop-color="rgb(84.762573%, 49.917603%, 62.875366%)" offset="0.65625"/><stop stop-opacity="1" stop-color="rgb(84.654236%, 49.562073%, 63.215637%)" offset="0.664062"/><stop stop-opacity="1" stop-color="rgb(84.547424%, 49.206543%, 63.555908%)" offset="0.671875"/><stop stop-opacity="1" stop-color="rgb(84.440613%, 48.851013%, 63.894653%)" offset="0.679687"/><stop stop-opacity="1" stop-color="rgb(84.333801%, 48.495483%, 64.234924%)" offset="0.6875"/><stop stop-opacity="1" stop-color="rgb(84.22699%, 48.139954%, 64.575195%)" offset="0.695312"/><stop stop-opacity="1" stop-color="rgb(84.120178%, 47.784424%, 64.915466%)" offset="0.703125"/><stop stop-opacity="1" stop-color="rgb(84.013367%, 47.428894%, 65.254211%)" offset="0.710937"/><stop stop-opacity="1" stop-color="rgb(83.905029%, 47.073364%, 65.594482%)" offset="0.71875"/><stop stop-opacity="1" stop-color="rgb(83.798218%, 46.717834%, 65.934753%)" offset="0.726562"/><stop stop-opacity="1" stop-color="rgb(83.691406%, 46.362305%, 66.273499%)" offset="0.734375"/><stop stop-opacity="1" stop-color="rgb(83.584595%, 46.006775%, 66.61377%)" offset="0.742187"/><stop stop-opacity="1" stop-color="rgb(83.477783%, 45.651245%, 66.954041%)" offset="0.75"/><stop stop-opacity="1" stop-color="rgb(83.370972%, 45.295715%, 67.294312%)" offset="0.757812"/><stop stop-opacity="1" stop-color="rgb(83.26416%, 44.940186%, 67.633057%)" offset="0.765625"/><stop stop-opacity="1" stop-color="rgb(83.155823%, 44.584656%, 67.973328%)" offset="0.773437"/><stop stop-opacity="1" stop-color="rgb(83.049011%, 44.229126%, 68.313599%)" offset="0.78125"/><stop stop-opacity="1" stop-color="rgb(82.9422%, 43.873596%, 68.652344%)" offset="0.789062"/><stop stop-opacity="1" stop-color="rgb(82.835388%, 43.518066%, 68.992615%)" offset="0.796875"/><stop stop-opacity="1" stop-color="rgb(82.728577%, 43.162537%, 69.332886%)" offset="0.804687"/><stop stop-opacity="1" stop-color="rgb(82.621765%, 42.807007%, 69.673157%)" offset="0.8125"/><stop stop-opacity="1" stop-color="rgb(82.514954%, 42.451477%, 70.011902%)" offset="0.820312"/><stop stop-opacity="1" stop-color="rgb(82.406616%, 42.095947%, 70.352173%)" offset="0.828125"/><stop stop-opacity="1" stop-color="rgb(82.299805%, 41.740417%, 70.692444%)" offset="0.835937"/><stop stop-opacity="1" stop-color="rgb(82.192993%, 41.384888%, 71.031189%)" offset="0.84375"/><stop stop-opacity="1" stop-color="rgb(82.086182%, 41.030884%, 71.37146%)" offset="0.851562"/><stop stop-opacity="1" stop-color="rgb(81.97937%, 40.675354%, 71.711731%)" offset="0.859375"/><stop stop-opacity="1" stop-color="rgb(81.872559%, 40.319824%, 72.052002%)" offset="0.867187"/><stop stop-opacity="1" stop-color="rgb(81.765747%, 39.964294%, 72.390747%)" offset="0.875"/><stop stop-opacity="1" stop-color="rgb(81.65741%, 39.608765%, 72.731018%)" offset="0.882812"/><stop stop-opacity="1" stop-color="rgb(81.550598%, 39.253235%, 73.071289%)" offset="0.890625"/><stop stop-opacity="1" stop-color="rgb(81.443787%, 38.897705%, 73.41156%)" offset="0.898437"/><stop stop-opacity="1" stop-color="rgb(81.336975%, 38.542175%, 73.750305%)" offset="0.90625"/><stop stop-opacity="1" stop-color="rgb(81.230164%, 38.186646%, 74.090576%)" offset="0.914062"/><stop stop-opacity="1" stop-color="rgb(81.123352%, 37.831116%, 74.430847%)" offset="0.921875"/><stop stop-opacity="1" stop-color="rgb(81.016541%, 37.475586%, 74.769592%)" offset="0.929687"/><stop stop-opacity="1" stop-color="rgb(80.908203%, 37.120056%, 75.109863%)" offset="0.9375"/><stop stop-opacity="1" stop-color="rgb(80.801392%, 36.764526%, 75.450134%)" offset="0.945312"/><stop stop-opacity="1" stop-color="rgb(80.69458%, 36.408997%, 75.790405%)" offset="0.953125"/><stop stop-opacity="1" stop-color="rgb(80.587769%, 36.053467%, 76.12915%)" offset="0.960937"/><stop stop-opacity="1" stop-color="rgb(80.480957%, 35.697937%, 76.469421%)" offset="0.96875"/><stop stop-opacity="1" stop-color="rgb(80.374146%, 35.342407%, 76.809692%)" offset="0.976562"/><stop stop-opacity="1" stop-color="rgb(80.267334%, 34.986877%, 77.148438%)" offset="0.984375"/><stop stop-opacity="1" stop-color="rgb(80.158997%, 34.631348%, 77.488708%)" offset="0.992187"/><stop stop-opacity="1" stop-color="rgb(80.052185%, 34.275818%, 77.828979%)" offset="1"/></linearGradient><clipPath id="77e1ea8b95"><path d="M 189 63 L 202 63 L 202 137.675781 L 189 137.675781 Z M 189 63 " clip-rule="nonzero"/></clipPath><clipPath id="9321443d9a"><path d="M 198 79 L 211 79 L 211 137.675781 L 198 137.675781 Z M 198 79 " clip-rule="nonzero"/></clipPath><clipPath id="5417891488"><path d="M 185 66 L 194 66 L 194 137.675781 L 185 137.675781 Z M 185 66 " clip-rule="nonzero"/></clipPath><clipPath id="818e157c12"><path d="M 180 84 L 182 84 L 182 137.675781 L 180 137.675781 Z M 180 84 " clip-rule="nonzero"/></clipPath><clipPath id="01b13b92d2"><path d="M 208 86 L 217 86 L 217 137.675781 L 208 137.675781 Z M 208 86 " clip-rule="nonzero"/></clipPath><clipPath id="e9d625b6e3"><path d="M 203 126 L 205 126 L 205 137.675781 L 203 137.675781 Z M 203 126 " clip-rule="nonzero"/></clipPath><clipPath id="55602b6486"><path d="M 194 107 L 201 107 L 201 137.675781 L 194 137.675781 Z M 194 107 " clip-rule="nonzero"/></clipPath><clipPath id="6161c47441"><path d="M 167 87 L 178 87 L 178 137.675781 L 167 137.675781 Z M 167 87 " clip-rule="nonzero"/></clipPath><clipPath id="c2de573276"><path d="M 171 109 L 173 109 L 173 137.675781 L 171 137.675781 Z M 171 109 " clip-rule="nonzero"/></clipPath><clipPath id="ea6abc9782"><path d="M 158 99 L 169 99 L 169 137.675781 L 158 137.675781 Z M 158 99 " clip-rule="nonzero"/></clipPath><clipPath id="2622fa1d2c"><path d="M 198 58.175781 L 205 58.175781 L 205 65 L 198 65 Z M 198 58.175781 " clip-rule="nonzero"/></clipPath><clipPath id="92ae53e4dc"><path d="M 155.621094 94 L 162 94 L 162 101 L 155.621094 101 Z M 155.621094 94 " clip-rule="nonzero"/></clipPath><clipPath id="2d8a86df9c"><path d="M 213 81 L 219.371094 81 L 219.371094 88 L 213 88 Z M 213 81 " clip-rule="nonzero"/></clipPath></defs><rect x="-37.5" width="450" fill="#ffffff" y="-37.499999" height="449.999989" fill-opacity="1"/><rect x="-37.5" width="450" fill="#ffffff" y="-37.499999" height="449.999989" fill-opacity="1"/><rect x="-37.5" width="450" fill="#100537" y="-37.499999" height="449.999989" fill-opacity="1"/><g clip-path="url(#2b271f59d0)"><g clip-path="url(#787fd19fd4)"><path fill="url(#4e1e32bbbe)" d="M 116.578125 132.605469 L 116.578125 227.855469 L 266.488281 227.855469 L 266.488281 132.605469 Z M 116.578125 132.605469 " fill-rule="nonzero"/></g></g><g clip-path="url(#77e1ea8b95)"><path fill="#efcb58" d="M 190.828125 137.140625 L 190.828125 106.402344 L 201.644531 91.925781 C 201.710938 91.839844 201.746094 91.730469 201.746094 91.621094 L 201.746094 63.992188 C 201.746094 63.707031 201.515625 63.476562 201.230469 63.476562 C 200.945312 63.476562 200.714844 63.707031 200.714844 63.992188 L 200.714844 91.449219 L 189.898438 105.925781 C 189.835938 106.011719 189.796875 106.125 189.796875 106.234375 L 189.796875 137.140625 C 189.796875 137.425781 190.027344 137.65625 190.3125 137.65625 C 190.597656 137.65625 190.828125 137.425781 190.828125 137.140625 " fill-opacity="1" fill-rule="nonzero"/></g><g clip-path="url(#9321443d9a)"><path fill="#efcb58" d="M 199.332031 137.140625 L 199.332031 121.929688 L 210.144531 107.453125 C 210.210938 107.363281 210.246094 107.253906 210.246094 107.144531 L 210.246094 79.515625 C 210.246094 79.230469 210.015625 79 209.730469 79 C 209.445312 79 209.214844 79.230469 209.214844 79.515625 L 209.214844 106.972656 L 198.402344 121.449219 C 198.335938 121.539062 198.300781 121.648438 198.300781 121.757812 L 198.300781 137.140625 C 198.300781 137.425781 198.53125 137.65625 198.816406 137.65625 C 199.101562 137.65625 199.332031 137.425781 199.332031 137.140625 " fill-opacity="1" fill-rule="nonzero"/></g><g clip-path="url(#5417891488)"><path fill="#efcb58" d="M 186.179688 137.140625 L 186.179688 94.050781 L 193.683594 86.5625 C 193.78125 86.464844 193.832031 86.335938 193.832031 86.199219 L 193.832031 66.714844 C 193.832031 66.429688 193.601562 66.199219 193.316406 66.199219 C 193.03125 66.199219 192.800781 66.429688 192.800781 66.714844 L 192.800781 85.988281 L 185.296875 93.472656 C 185.199219 93.570312 185.144531 93.703125 185.144531 93.835938 L 185.144531 137.140625 C 185.144531 137.425781 185.378906 137.65625 185.660156 137.65625 C 185.949219 137.65625 186.179688 137.425781 186.179688 137.140625 " fill-opacity="1" fill-rule="nonzero"/></g><g clip-path="url(#818e157c12)"><path fill="#efcb58" d="M 181.851562 137.140625 L 181.851562 85.054688 C 181.851562 84.769531 181.621094 84.539062 181.335938 84.539062 C 181.050781 84.539062 180.820312 84.769531 180.820312 85.054688 L 180.820312 137.140625 C 180.820312 137.425781 181.050781 137.65625 181.335938 137.65625 C 181.621094 137.65625 181.851562 137.425781 181.851562 137.140625 " fill-opacity="1" fill-rule="nonzero"/></g><g clip-path="url(#01b13b92d2)"><path fill="#efcb58" d="M 209.53125 137.140625 L 209.53125 118.808594 L 216.632812 108.621094 C 216.695312 108.535156 216.726562 108.433594 216.726562 108.328125 L 216.726562 87.054688 C 216.726562 86.773438 216.496094 86.542969 216.210938 86.542969 C 215.925781 86.542969 215.695312 86.773438 215.695312 87.054688 L 215.695312 108.167969 L 208.589844 118.355469 C 208.53125 118.441406 208.5 118.542969 208.5 118.648438 L 208.5 137.140625 C 208.5 137.425781 208.730469 137.65625 209.015625 137.65625 C 209.300781 137.65625 209.53125 137.425781 209.53125 137.140625 " fill-opacity="1" fill-rule="nonzero"/></g><g clip-path="url(#e9d625b6e3)"><path fill="#efcb58" d="M 204.050781 137.140625 L 204.050781 127.316406 C 204.050781 127.035156 203.820312 126.804688 203.535156 126.804688 C 203.25 126.804688 203.019531 127.035156 203.019531 127.316406 L 203.019531 137.140625 C 203.019531 137.425781 203.25 137.65625 203.535156 137.65625 C 203.820312 137.65625 204.050781 137.425781 204.050781 137.140625 " fill-opacity="1" fill-rule="nonzero"/></g><g clip-path="url(#55602b6486)"><path fill="#efcb58" d="M 199.460938 107.375 L 194.371094 113.570312 C 194.292969 113.660156 194.253906 113.777344 194.253906 113.894531 L 194.253906 137.140625 C 194.253906 137.425781 194.484375 137.65625 194.769531 137.65625 C 195.054688 137.65625 195.285156 137.425781 195.285156 137.140625 L 195.285156 114.078125 L 200.257812 108.027344 C 200.441406 107.804688 200.40625 107.480469 200.1875 107.300781 C 199.96875 107.121094 199.640625 107.152344 199.460938 107.375 " fill-opacity="1" fill-rule="nonzero"/></g><g clip-path="url(#6161c47441)"><path fill="#efcb58" d="M 167.597656 88.714844 L 176 102.445312 L 176 137.140625 C 176 137.425781 176.230469 137.65625 176.515625 137.65625 C 176.800781 137.65625 177.03125 137.425781 177.03125 137.140625 L 177.03125 102.300781 C 177.03125 102.207031 177.007812 102.113281 176.957031 102.03125 L 168.480469 88.175781 C 168.332031 87.933594 168.015625 87.859375 167.769531 88.007812 C 167.527344 88.15625 167.449219 88.472656 167.597656 88.714844 " fill-opacity="1" fill-rule="nonzero"/></g><g clip-path="url(#c2de573276)"><path fill="#efcb58" d="M 172.792969 137.140625 L 172.792969 109.613281 C 172.792969 109.328125 172.5625 109.097656 172.277344 109.097656 C 171.992188 109.097656 171.761719 109.328125 171.761719 109.613281 L 171.761719 137.140625 C 171.761719 137.425781 171.992188 137.65625 172.277344 137.65625 C 172.5625 137.65625 172.792969 137.425781 172.792969 137.140625 " fill-opacity="1" fill-rule="nonzero"/></g><g clip-path="url(#ea6abc9782)"><path fill="#efcb58" d="M 168.554688 137.140625 L 168.554688 117.746094 C 168.554688 117.609375 168.5 117.476562 168.402344 117.378906 L 159.300781 108.363281 L 159.300781 99.894531 C 159.300781 99.613281 159.070312 99.382812 158.785156 99.382812 C 158.5 99.382812 158.269531 99.613281 158.269531 99.894531 L 158.269531 108.578125 C 158.269531 108.714844 158.324219 108.84375 158.421875 108.941406 L 167.523438 117.960938 L 167.523438 137.140625 C 167.523438 137.425781 167.753906 137.65625 168.039062 137.65625 C 168.324219 137.65625 168.554688 137.425781 168.554688 137.140625 " fill-opacity="1" fill-rule="nonzero"/></g><g clip-path="url(#2622fa1d2c)"><path fill="#efcb58" d="M 203.875 61.351562 L 203.359375 61.351562 C 203.359375 61.941406 203.121094 62.46875 202.738281 62.855469 C 202.351562 63.238281 201.820312 63.476562 201.230469 63.476562 C 200.640625 63.476562 200.113281 63.238281 199.726562 62.855469 C 199.339844 62.46875 199.101562 61.941406 199.101562 61.351562 C 199.101562 60.761719 199.339844 60.234375 199.726562 59.847656 C 200.113281 59.464844 200.640625 59.226562 201.230469 59.226562 C 201.820312 59.226562 202.351562 59.464844 202.738281 59.847656 C 203.121094 60.234375 203.359375 60.761719 203.359375 61.351562 L 204.390625 61.351562 C 204.390625 59.609375 202.976562 58.199219 201.230469 58.195312 C 199.484375 58.199219 198.070312 59.609375 198.070312 61.351562 C 198.070312 63.09375 199.484375 64.503906 201.230469 64.503906 C 202.976562 64.503906 204.390625 63.09375 204.390625 61.351562 L 203.875 61.351562 " fill-opacity="1" fill-rule="nonzero"/></g><path fill="#efcb58" d="M 195.964844 63.992188 L 195.445312 63.992188 C 195.445312 64.578125 195.210938 65.105469 194.824219 65.492188 C 194.4375 65.878906 193.90625 66.113281 193.316406 66.113281 C 192.726562 66.113281 192.199219 65.878906 191.8125 65.492188 C 191.425781 65.105469 191.1875 64.578125 191.1875 63.992188 C 191.1875 63.402344 191.425781 62.875 191.8125 62.488281 C 192.199219 62.101562 192.726562 61.867188 193.316406 61.867188 C 193.90625 61.867188 194.4375 62.101562 194.824219 62.488281 C 195.210938 62.875 195.445312 63.402344 195.445312 63.992188 L 196.480469 63.992188 C 196.480469 62.25 195.0625 60.835938 193.316406 60.835938 C 191.570312 60.835938 190.15625 62.25 190.15625 63.992188 C 190.15625 65.734375 191.570312 67.144531 193.316406 67.144531 C 195.0625 67.144531 196.480469 65.734375 196.480469 63.992188 L 195.964844 63.992188 " fill-opacity="1" fill-rule="nonzero"/><path fill="#efcb58" d="M 183.980469 82.414062 L 183.464844 82.414062 C 183.464844 83.003906 183.230469 83.53125 182.84375 83.914062 C 182.457031 84.300781 181.925781 84.539062 181.335938 84.539062 C 180.746094 84.539062 180.21875 84.300781 179.832031 83.914062 C 179.445312 83.53125 179.207031 83.003906 179.207031 82.414062 C 179.207031 81.824219 179.445312 81.296875 179.832031 80.910156 C 180.21875 80.527344 180.746094 80.289062 181.335938 80.289062 C 181.925781 80.289062 182.457031 80.527344 182.84375 80.910156 C 183.230469 81.296875 183.464844 81.824219 183.464844 82.414062 L 184.5 82.414062 C 184.496094 80.671875 183.082031 79.257812 181.335938 79.257812 C 179.589844 79.257812 178.175781 80.671875 178.175781 82.414062 C 178.175781 84.15625 179.589844 85.566406 181.335938 85.566406 C 183.082031 85.566406 184.496094 84.15625 184.5 82.414062 L 183.980469 82.414062 " fill-opacity="1" fill-rule="nonzero"/><path fill="#efcb58" d="M 169.214844 86.214844 L 168.695312 86.214844 C 168.695312 86.804688 168.460938 87.332031 168.074219 87.71875 C 167.6875 88.101562 167.15625 88.339844 166.566406 88.339844 C 165.976562 88.339844 165.449219 88.101562 165.0625 87.71875 C 164.675781 87.332031 164.4375 86.804688 164.4375 86.214844 C 164.4375 85.628906 164.675781 85.101562 165.0625 84.714844 C 165.449219 84.328125 165.976562 84.089844 166.566406 84.089844 C 167.15625 84.089844 167.6875 84.328125 168.074219 84.714844 C 168.460938 85.101562 168.695312 85.628906 168.695312 86.214844 L 169.730469 86.214844 C 169.730469 84.472656 168.3125 83.0625 166.566406 83.0625 C 164.820312 83.0625 163.40625 84.472656 163.40625 86.214844 C 163.40625 87.957031 164.820312 89.371094 166.566406 89.371094 C 168.3125 89.371094 169.730469 87.957031 169.730469 86.214844 L 169.214844 86.214844 " fill-opacity="1" fill-rule="nonzero"/><g clip-path="url(#92ae53e4dc)"><path fill="#efcb58" d="M 161.429688 97.257812 L 160.914062 97.257812 C 160.914062 97.84375 160.675781 98.371094 160.292969 98.757812 C 159.90625 99.144531 159.375 99.378906 158.785156 99.382812 C 158.195312 99.378906 157.667969 99.144531 157.28125 98.757812 C 156.894531 98.371094 156.65625 97.84375 156.65625 97.257812 C 156.65625 96.667969 156.894531 96.140625 157.28125 95.753906 C 157.667969 95.371094 158.195312 95.132812 158.785156 95.132812 C 159.375 95.132812 159.90625 95.371094 160.292969 95.753906 C 160.675781 96.140625 160.914062 96.667969 160.914062 97.257812 L 161.949219 97.257812 C 161.945312 95.515625 160.53125 94.101562 158.785156 94.101562 C 157.039062 94.101562 155.625 95.515625 155.625 97.257812 C 155.625 99 157.039062 100.410156 158.785156 100.410156 C 160.53125 100.410156 161.945312 99 161.949219 97.257812 L 161.429688 97.257812 " fill-opacity="1" fill-rule="nonzero"/></g><g clip-path="url(#2d8a86df9c)"><path fill="#efcb58" d="M 218.855469 84.417969 L 218.339844 84.417969 C 218.339844 85.003906 218.101562 85.535156 217.714844 85.917969 C 217.328125 86.304688 216.800781 86.542969 216.210938 86.542969 C 215.621094 86.542969 215.089844 86.304688 214.703125 85.917969 C 214.316406 85.535156 214.078125 85.003906 214.078125 84.417969 C 214.078125 83.828125 214.316406 83.300781 214.703125 82.914062 C 215.089844 82.53125 215.621094 82.292969 216.210938 82.292969 C 216.800781 82.292969 217.328125 82.53125 217.714844 82.914062 C 218.101562 83.300781 218.339844 83.828125 218.339844 84.417969 L 219.371094 84.417969 C 219.371094 82.675781 217.957031 81.261719 216.210938 81.261719 C 214.464844 81.261719 213.046875 82.675781 213.046875 84.417969 C 213.046875 86.160156 214.464844 87.570312 216.210938 87.570312 C 217.957031 87.570312 219.371094 86.160156 219.371094 84.417969 L 218.855469 84.417969 " fill-opacity="1" fill-rule="nonzero"/></g><path fill="#efcb58" d="M 206.179688 124.679688 L 205.664062 124.679688 C 205.664062 125.265625 205.429688 125.792969 205.042969 126.179688 C 204.65625 126.566406 204.125 126.804688 203.535156 126.804688 C 202.945312 126.804688 202.417969 126.566406 202.03125 126.179688 C 201.644531 125.792969 201.40625 125.265625 201.40625 124.679688 C 201.40625 124.089844 201.644531 123.5625 202.03125 123.175781 C 202.417969 122.789062 202.945312 122.554688 203.535156 122.554688 C 204.125 122.554688 204.65625 122.789062 205.042969 123.175781 C 205.429688 123.5625 205.664062 124.089844 205.664062 124.679688 L 206.699219 124.679688 C 206.699219 122.9375 205.28125 121.523438 203.535156 121.523438 C 201.789062 121.523438 200.375 122.9375 200.375 124.679688 C 200.375 126.421875 201.789062 127.832031 203.535156 127.832031 C 205.28125 127.832031 206.699219 126.421875 206.699219 124.679688 L 206.179688 124.679688 " fill-opacity="1" fill-rule="nonzero"/><path fill="#efcb58" d="M 204.105469 105.601562 L 203.589844 105.601562 C 203.589844 106.191406 203.351562 106.71875 202.96875 107.105469 C 202.578125 107.488281 202.050781 107.726562 201.460938 107.726562 C 200.871094 107.726562 200.34375 107.488281 199.957031 107.105469 C 199.570312 106.71875 199.332031 106.191406 199.332031 105.601562 C 199.332031 105.011719 199.570312 104.484375 199.957031 104.097656 C 200.34375 103.714844 200.871094 103.476562 201.460938 103.476562 C 202.050781 103.476562 202.578125 103.714844 202.96875 104.097656 C 203.351562 104.484375 203.589844 105.011719 203.589844 105.601562 L 204.621094 105.601562 C 204.621094 103.859375 203.207031 102.449219 201.460938 102.445312 C 199.714844 102.449219 198.300781 103.859375 198.300781 105.601562 C 198.300781 107.34375 199.714844 108.753906 201.460938 108.753906 C 203.207031 108.753906 204.621094 107.34375 204.621094 105.601562 L 204.105469 105.601562 " fill-opacity="1" fill-rule="nonzero"/><path fill="#efcb58" d="M 174.925781 106.972656 L 174.40625 106.972656 C 174.40625 107.5625 174.171875 108.089844 173.785156 108.476562 C 173.398438 108.863281 172.867188 109.097656 172.277344 109.097656 C 171.6875 109.097656 171.160156 108.863281 170.769531 108.476562 C 170.386719 108.089844 170.148438 107.5625 170.148438 106.972656 C 170.148438 106.386719 170.386719 105.855469 170.769531 105.472656 C 171.160156 105.085938 171.6875 104.847656 172.277344 104.847656 C 172.867188 104.847656 173.398438 105.085938 173.785156 105.472656 C 174.171875 105.855469 174.40625 106.386719 174.40625 106.972656 L 175.441406 106.972656 C 175.441406 105.230469 174.023438 103.820312 172.277344 103.820312 C 170.53125 103.820312 169.117188 105.230469 169.117188 106.972656 C 169.117188 108.714844 170.53125 110.128906 172.277344 110.128906 C 174.023438 110.128906 175.441406 108.714844 175.441406 106.972656 L 174.925781 106.972656 " fill-opacity="1" fill-rule="nonzero"/><path fill="#efcb58" d="M 212.375 76.875 L 211.859375 76.875 C 211.859375 77.464844 211.625 77.992188 211.238281 78.378906 C 210.851562 78.765625 210.320312 79 209.730469 79 C 209.140625 79 208.613281 78.765625 208.226562 78.378906 C 207.839844 77.992188 207.601562 77.464844 207.601562 76.875 C 207.601562 76.289062 207.839844 75.761719 208.226562 75.375 C 208.613281 74.988281 209.140625 74.75 209.730469 74.75 C 210.320312 74.75 210.851562 74.988281 211.238281 75.375 C 211.625 75.761719 211.859375 76.289062 211.859375 76.875 L 212.894531 76.875 C 212.894531 75.132812 211.476562 73.722656 209.730469 73.722656 C 207.984375 73.722656 206.570312 75.132812 206.570312 76.875 C 206.570312 78.617188 207.984375 80.03125 209.730469 80.03125 C 211.476562 80.03125 212.894531 78.617188 212.894531 76.875 L 212.375 76.875 " fill-opacity="1" fill-rule="nonzero"/><g fill="#cc57c7" fill-opacity="1"><g transform="translate(66.880628, 265.266544)"><g><path d="M 23.546875 -22.40625 L 23.546875 0 L 17.21875 0 L 17.21875 -8.734375 L 8.578125 -8.734375 L 8.578125 0 L 2.234375 0 L 2.234375 -22.40625 L 8.578125 -22.40625 L 8.578125 -13.984375 L 17.21875 -13.984375 L 17.21875 -22.40625 Z M 23.546875 -22.40625 "/></g></g></g><g fill="#cc57c7" fill-opacity="1"><g transform="translate(97.146297, 265.266544)"><g><path d="M 13.53125 0.453125 C 11.164062 0.453125 9.035156 -0.046875 7.140625 -1.046875 C 5.253906 -2.054688 3.773438 -3.445312 2.703125 -5.21875 C 1.628906 -6.988281 1.09375 -8.984375 1.09375 -11.203125 C 1.09375 -13.421875 1.628906 -15.414062 2.703125 -17.1875 C 3.773438 -18.957031 5.253906 -20.34375 7.140625 -21.34375 C 9.035156 -22.34375 11.164062 -22.84375 13.53125 -22.84375 C 15.90625 -22.84375 18.035156 -22.34375 19.921875 -21.34375 C 21.804688 -20.34375 23.285156 -18.957031 24.359375 -17.1875 C 25.441406 -15.414062 25.984375 -13.421875 25.984375 -11.203125 C 25.984375 -8.984375 25.441406 -6.988281 24.359375 -5.21875 C 23.285156 -3.445312 21.804688 -2.054688 19.921875 -1.046875 C 18.035156 -0.046875 15.90625 0.453125 13.53125 0.453125 Z M 13.53125 -4.796875 C 14.664062 -4.796875 15.691406 -5.0625 16.609375 -5.59375 C 17.523438 -6.132812 18.25 -6.890625 18.78125 -7.859375 C 19.3125 -8.828125 19.578125 -9.941406 19.578125 -11.203125 C 19.578125 -12.460938 19.3125 -13.578125 18.78125 -14.546875 C 18.25 -15.515625 17.523438 -16.265625 16.609375 -16.796875 C 15.691406 -17.328125 14.664062 -17.59375 13.53125 -17.59375 C 12.40625 -17.59375 11.382812 -17.328125 10.46875 -16.796875 C 9.550781 -16.265625 8.820312 -15.515625 8.28125 -14.546875 C 7.75 -13.578125 7.484375 -12.460938 7.484375 -11.203125 C 7.484375 -9.941406 7.75 -8.828125 8.28125 -7.859375 C 8.820312 -6.890625 9.550781 -6.132812 10.46875 -5.59375 C 11.382812 -5.0625 12.40625 -4.796875 13.53125 -4.796875 Z M 13.53125 -4.796875 "/></g></g></g><g fill="#cc57c7" fill-opacity="1"><g transform="translate(128.691646, 265.266544)"><g><path d="M 22.46875 0 L 22.40625 -11.875 L 16.640625 -2.203125 L 13.828125 -2.203125 L 8.09375 -11.546875 L 8.09375 0 L 2.234375 0 L 2.234375 -22.40625 L 7.453125 -22.40625 L 15.328125 -9.46875 L 23.015625 -22.40625 L 28.21875 -22.40625 L 28.28125 0 Z M 22.46875 0 "/></g></g></g><g fill="#cc57c7" fill-opacity="1"><g transform="translate(163.692145, 265.266544)"><g><path d="M 20.21875 -4.890625 L 20.21875 0 L 2.234375 0 L 2.234375 -22.40625 L 19.8125 -22.40625 L 19.8125 -17.5 L 8.515625 -17.5 L 8.515625 -13.734375 L 18.46875 -13.734375 L 18.46875 -8.984375 L 8.515625 -8.984375 L 8.515625 -4.890625 Z M 20.21875 -4.890625 "/></g></g></g><g fill="#cc57c7" fill-opacity="1"><g transform="translate(189.670873, 265.266544)"><g/></g></g><g fill="#cc57c7" fill-opacity="1"><g transform="translate(203.460591, 265.266544)"><g><path d="M 7.015625 -17.375 L 0.125 -17.375 L 0.125 -22.40625 L 20.1875 -22.40625 L 20.1875 -17.375 L 13.34375 -17.375 L 13.34375 0 L 7.015625 0 Z M 7.015625 -17.375 "/></g></g></g><g fill="#cc57c7" fill-opacity="1"><g transform="translate(228.255599, 265.266544)"><g><path d="M 20.21875 -4.890625 L 20.21875 0 L 2.234375 0 L 2.234375 -22.40625 L 19.8125 -22.40625 L 19.8125 -17.5 L 8.515625 -17.5 L 8.515625 -13.734375 L 18.46875 -13.734375 L 18.46875 -8.984375 L 8.515625 -8.984375 L 8.515625 -4.890625 Z M 20.21875 -4.890625 "/></g></g></g><g fill="#cc57c7" fill-opacity="1"><g transform="translate(254.234327, 265.266544)"><g><path d="M 13.40625 0.453125 C 11.0625 0.453125 8.953125 -0.0390625 7.078125 -1.03125 C 5.210938 -2.03125 3.75 -3.414062 2.6875 -5.1875 C 1.625 -6.957031 1.09375 -8.960938 1.09375 -11.203125 C 1.09375 -13.441406 1.625 -15.445312 2.6875 -17.21875 C 3.75 -18.988281 5.210938 -20.367188 7.078125 -21.359375 C 8.953125 -22.347656 11.0625 -22.84375 13.40625 -22.84375 C 15.457031 -22.84375 17.300781 -22.476562 18.9375 -21.75 C 20.582031 -21.03125 21.953125 -19.988281 23.046875 -18.625 L 19.015625 -14.96875 C 17.554688 -16.71875 15.796875 -17.59375 13.734375 -17.59375 C 12.515625 -17.59375 11.429688 -17.328125 10.484375 -16.796875 C 9.535156 -16.265625 8.796875 -15.515625 8.265625 -14.546875 C 7.742188 -13.578125 7.484375 -12.460938 7.484375 -11.203125 C 7.484375 -9.941406 7.742188 -8.828125 8.265625 -7.859375 C 8.796875 -6.890625 9.535156 -6.132812 10.484375 -5.59375 C 11.429688 -5.0625 12.515625 -4.796875 13.734375 -4.796875 C 15.796875 -4.796875 17.554688 -5.671875 19.015625 -7.421875 L 23.046875 -3.78125 C 21.953125 -2.414062 20.582031 -1.367188 18.9375 -0.640625 C 17.300781 0.0859375 15.457031 0.453125 13.40625 0.453125 Z M 13.40625 0.453125 "/></g></g></g><g fill="#cc57c7" fill-opacity="1"><g transform="translate(282.324524, 265.266544)"><g><path d="M 23.546875 -22.40625 L 23.546875 0 L 17.21875 0 L 17.21875 -8.734375 L 8.578125 -8.734375 L 8.578125 0 L 2.234375 0 L 2.234375 -22.40625 L 8.578125 -22.40625 L 8.578125 -13.984375 L 17.21875 -13.984375 L 17.21875 -22.40625 Z M 23.546875 -22.40625 "/></g></g></g><g fill="#efcb58" fill-opacity="1"><g transform="translate(131.913313, 290.858155)"><g><path d="M 1.035156 0 L 2.25 0 L 2.25 -5.925781 L 4.449219 -2.65625 L 5.132812 -2.65625 L 7.332031 -5.925781 L 7.332031 0 L 8.535156 0 L 8.535156 -8.414062 L 7.574219 -8.414062 L 4.796875 -4.328125 L 2.019531 -8.414062 L 1.035156 -8.414062 Z M 1.035156 0 "/></g></g></g><g fill="#efcb58" fill-opacity="1"><g transform="translate(150.108637, 290.858155)"><g><path d="M 3.8125 -7.371094 L 5.375 -7.371094 L 5.375 -8.488281 L 1.035156 -8.488281 L 1.035156 -7.371094 L 2.597656 -7.371094 L 2.597656 -1.128906 L 1.035156 -1.128906 L 1.035156 0 L 5.375 0 L 5.375 -1.128906 L 3.8125 -1.128906 Z M 3.8125 -7.371094 "/></g></g></g><g fill="#efcb58" fill-opacity="1"><g transform="translate(165.144899, 290.858155)"><g><path d="M 1.035156 -8.414062 L 1.035156 0 L 2.25 0 L 2.25 -5.878906 L 6.3125 0 L 7.273438 0 L 7.273438 -8.414062 L 6.070312 -8.414062 L 6.070312 -2.488281 L 1.972656 -8.414062 Z M 1.035156 -8.414062 "/></g></g></g><g fill="#efcb58" fill-opacity="1"><g transform="translate(182.091005, 290.858155)"><g><path d="M 3.8125 -7.371094 L 5.375 -7.371094 L 5.375 -8.488281 L 1.035156 -8.488281 L 1.035156 -7.371094 L 2.597656 -7.371094 L 2.597656 -1.128906 L 1.035156 -1.128906 L 1.035156 0 L 5.375 0 L 5.375 -1.128906 L 3.8125 -1.128906 Z M 3.8125 -7.371094 "/></g></g></g><g fill="#efcb58" fill-opacity="1"><g transform="translate(197.127271, 290.858155)"><g><path d="M 1.035156 0 L 2.25 0 L 2.25 -5.925781 L 4.449219 -2.65625 L 5.132812 -2.65625 L 7.332031 -5.925781 L 7.332031 0 L 8.535156 0 L 8.535156 -8.414062 L 7.574219 -8.414062 L 4.796875 -4.328125 L 2.019531 -8.414062 L 1.035156 -8.414062 Z M 1.035156 0 "/></g></g></g><g fill="#efcb58" fill-opacity="1"><g transform="translate(215.322597, 290.858155)"><g><path d="M 3.8125 -7.371094 L 5.375 -7.371094 L 5.375 -8.488281 L 1.035156 -8.488281 L 1.035156 -7.371094 L 2.597656 -7.371094 L 2.597656 -1.128906 L 1.035156 -1.128906 L 1.035156 0 L 5.375 0 L 5.375 -1.128906 L 3.8125 -1.128906 Z M 3.8125 -7.371094 "/></g></g></g><g fill="#efcb58" fill-opacity="1"><g transform="translate(230.358863, 290.858155)"><g><path d="M 1.886719 -1.082031 L 6.578125 -7.550781 L 6.578125 -8.5 L 0.480469 -8.5 L 0.480469 -7.417969 L 5.144531 -7.417969 L 0.480469 -0.996094 L 0.480469 0 L 6.636719 0 L 6.636719 -1.082031 Z M 1.886719 -1.082031 "/></g></g></g><g fill="#efcb58" fill-opacity="1"><g transform="translate(246.115831, 290.858155)"><g><path d="M 6.167969 -1.214844 L 2.261719 -1.214844 L 2.261719 -3.691406 L 6.070312 -3.691406 L 6.070312 -4.917969 L 2.261719 -4.917969 L 2.261719 -7.285156 L 6.15625 -7.285156 L 6.15625 -8.5 L 1.035156 -8.5 L 1.035156 0 L 6.167969 0 Z M 6.167969 -1.214844 "/></g></g></g><g fill="#efcb58" fill-opacity="1"><g transform="translate(149.995343, 307.358154)"><g><path d="M 5.242188 -6.238281 L 6.445312 -6.289062 C 6.226562 -7.828125 4.882812 -8.5 3.582031 -8.5 C 2.609375 -8.5 1.597656 -8.113281 1.035156 -7.382812 C 0.722656 -6.972656 0.566406 -6.492188 0.566406 -5.988281 C 0.566406 -5.925781 0.578125 -5.855469 0.578125 -5.78125 L 0.578125 -5.792969 C 0.710938 -4.039062 2.25 -3.75 3.558594 -3.617188 C 4.398438 -3.535156 5.265625 -3.425781 5.410156 -2.789062 C 5.433594 -2.679688 5.445312 -2.585938 5.445312 -2.5 C 5.445312 -1.636719 4.460938 -1.128906 3.558594 -1.128906 C 2.777344 -1.128906 1.828125 -1.539062 1.742188 -2.320312 L 1.742188 -2.273438 L 1.730469 -2.453125 L 0.503906 -2.429688 L 0.515625 -2.199219 C 0.671875 -0.699219 2.25 0.0703125 3.546875 0.0703125 C 5.0625 0.0703125 6.671875 -0.867188 6.671875 -2.488281 C 6.671875 -2.65625 6.648438 -2.863281 6.613281 -3.042969 C 6.289062 -4.386719 4.855469 -4.6875 3.703125 -4.832031 C 2.765625 -4.917969 1.792969 -5.039062 1.792969 -6.011719 C 1.792969 -6.25 1.851562 -6.492188 1.996094 -6.671875 C 2.34375 -7.117188 2.980469 -7.308594 3.558594 -7.308594 C 4.28125 -7.308594 5.074219 -6.984375 5.242188 -6.238281 Z M 5.242188 -6.238281 "/></g></g></g><g fill="#efcb58" fill-opacity="1"><g transform="translate(165.788335, 307.358154)"><g><path d="M 2.621094 -7.347656 L 2.621094 0 L 3.835938 0 L 3.835938 -7.347656 L 6.371094 -7.347656 L 6.371094 -8.5 L 0.0703125 -8.5 L 0.0703125 -7.347656 Z M 2.621094 -7.347656 "/></g></g></g><g fill="#efcb58" fill-opacity="1"><g transform="translate(180.884655, 307.358154)"><g><path d="M 2.078125 -2.128906 L 5.496094 -2.128906 L 6.300781 0 L 7.597656 0 L 4.21875 -8.523438 L 3.332031 -8.523438 L -0.046875 0 L 1.261719 0 Z M 5.050781 -3.269531 L 2.523438 -3.269531 L 3.785156 -6.589844 Z M 5.050781 -3.269531 "/></g></g></g><g fill="#efcb58" fill-opacity="1"><g transform="translate(197.146099, 307.358154)"><g><path d="M 2.621094 -7.347656 L 2.621094 0 L 3.835938 0 L 3.835938 -7.347656 L 6.371094 -7.347656 L 6.371094 -8.5 L 0.0703125 -8.5 L 0.0703125 -7.347656 Z M 2.621094 -7.347656 "/></g></g></g><g fill="#efcb58" fill-opacity="1"><g transform="translate(212.24242, 307.358154)"><g><path d="M 6.167969 -1.214844 L 2.261719 -1.214844 L 2.261719 -3.691406 L 6.070312 -3.691406 L 6.070312 -4.917969 L 2.261719 -4.917969 L 2.261719 -7.285156 L 6.15625 -7.285156 L 6.15625 -8.5 L 1.035156 -8.5 L 1.035156 0 L 6.167969 0 Z M 6.167969 -1.214844 "/></g></g></g><g fill="#efcb58" fill-opacity="1"><g transform="translate(227.590983, 307.358154)"><g><path d="M 5.242188 -6.238281 L 6.445312 -6.289062 C 6.226562 -7.828125 4.882812 -8.5 3.582031 -8.5 C 2.609375 -8.5 1.597656 -8.113281 1.035156 -7.382812 C 0.722656 -6.972656 0.566406 -6.492188 0.566406 -5.988281 C 0.566406 -5.925781 0.578125 -5.855469 0.578125 -5.78125 L 0.578125 -5.792969 C 0.710938 -4.039062 2.25 -3.75 3.558594 -3.617188 C 4.398438 -3.535156 5.265625 -3.425781 5.410156 -2.789062 C 5.433594 -2.679688 5.445312 -2.585938 5.445312 -2.5 C 5.445312 -1.636719 4.460938 -1.128906 3.558594 -1.128906 C 2.777344 -1.128906 1.828125 -1.539062 1.742188 -2.320312 L 1.742188 -2.273438 L 1.730469 -2.453125 L 0.503906 -2.429688 L 0.515625 -2.199219 C 0.671875 -0.699219 2.25 0.0703125 3.546875 0.0703125 C 5.0625 0.0703125 6.671875 -0.867188 6.671875 -2.488281 C 6.671875 -2.65625 6.648438 -2.863281 6.613281 -3.042969 C 6.289062 -4.386719 4.855469 -4.6875 3.703125 -4.832031 C 2.765625 -4.917969 1.792969 -5.039062 1.792969 -6.011719 C 1.792969 -6.25 1.851562 -6.492188 1.996094 -6.671875 C 2.34375 -7.117188 2.980469 -7.308594 3.558594 -7.308594 C 4.28125 -7.308594 5.074219 -6.984375 5.242188 -6.238281 Z M 5.242188 -6.238281 "/></g></g></g></svg>